# 3ds Max Wavefront OBJ Exporter v0.99 - (c)2007 guruware
# File Created: 25.01.2024 10:53:15

mtllib Murs.mtl

#
# object Box001
#

v  -47.4193 0.0002 70.4978
v  47.4195 0.0002 70.4978
v  47.4195 0.0002 83.3967
v  -47.4193 0.0002 83.3967
v  46.6134 0.5102 83.3967
v  -46.6131 0.5102 83.3967
v  -47.4193 19.3280 83.3967
v  -47.4193 19.3283 70.4987
v  -47.4193 0.0002 -83.3980
v  -47.4193 19.3280 -83.3980
v  47.4195 19.3280 -83.3980
v  47.4195 0.0002 -83.3980
v  -47.4193 48.7230 83.3967
v  -46.6131 48.7230 83.3967
v  -46.6131 59.4902 83.3967
v  -47.4193 60.0002 83.3967
v  47.4195 19.3280 83.3967
v  46.6134 19.3280 83.3967
v  46.6134 0.5102 -81.2738
v  -46.6131 0.5102 -81.2738
v  -46.6131 0.5102 -79.4610
v  46.6134 0.5102 -79.4610
v  47.4195 60.0002 -83.3980
v  -47.4193 60.0002 -83.3980
v  -47.4193 60.0002 -79.4610
v  47.4195 60.0002 -79.4610
v  46.6134 59.4902 83.3967
v  47.4195 60.0002 83.3967
v  46.6134 59.4902 -81.2738
v  -46.6131 59.4902 -81.2738
v  -46.6131 48.7230 -81.2738
v  46.6134 48.7230 -81.2749
v  -46.6131 19.3283 -79.4603
v  -47.4193 19.3283 -79.4603
v  -46.6131 19.3283 70.4987
v  -47.4193 48.7233 70.4987
v  -46.6131 48.7233 70.4987
v  -46.6131 48.7233 -79.4603
v  -47.4193 48.7233 -79.4603
v  -46.6131 19.3280 83.3967
v  -46.6131 19.3280 -81.2738
v  46.6134 19.3280 -81.2738
v  -46.6131 59.4902 70.4978
v  46.6134 0.5102 70.4978
v  -46.6131 0.5102 70.4978
v  -46.6131 59.4902 -79.4610
v  46.6134 59.4902 -79.4610
v  46.6134 59.4902 70.4978
v  46.6134 48.7230 70.4978
v  46.6134 48.7230 83.3967
v  46.6134 48.7230 -79.4610
v  46.6134 19.3280 -79.4610
v  46.6134 19.3280 70.4978
v  -47.4193 60.0002 70.4978
v  47.4195 60.0002 70.4978
v  47.4195 19.3280 -79.4610
v  47.4195 0.0002 -79.4610
v  47.4195 19.3280 70.4978
v  -47.4193 0.0002 -79.4610
v  -47.4193 48.7230 -83.3980
v  47.4195 48.7230 -83.3980
v  47.4195 48.7230 -79.0995
v  47.4195 48.7230 83.3967
v  47.4195 48.7230 70.4978
# 64 vertices

vn -0.7071 -0.7071 -0.0000
vn 0.7071 -0.7071 0.0000
vn 0.5774 -0.5774 0.5774
vn -0.5774 -0.5774 0.5774
vn -0.3015 0.3015 0.9045
vn 0.3015 0.3015 0.9045
vn -0.7071 0.0000 0.7071
vn -0.9045 0.3015 -0.3015
vn -0.5774 -0.5774 -0.5774
vn -0.7071 0.0000 -0.7071
vn 0.7071 -0.0000 -0.7071
vn 0.5774 -0.5774 -0.5774
vn -0.7071 -0.0000 0.7071
vn 0.7071 -0.0000 0.7071
vn 0.3015 -0.3015 0.9045
vn -0.5774 0.5774 0.5774
vn -0.5773 0.5773 0.5774
vn 0.5774 0.5774 0.5774
vn 0.7071 0.7071 -0.0000
vn -0.7071 0.7071 0.0000
vn 0.5774 0.5774 -0.5774
vn -0.5774 0.5774 -0.5774
vn -0.7071 0.7071 -0.0000
vn -0.3015 -0.3015 0.9045
vn -0.5773 -0.5774 0.5773
vn 0.9045 0.3015 0.3015
vn -0.9045 0.3015 0.3015
vn 0.9045 0.3015 -0.3015
vn -0.9045 -0.3015 -0.3015
vn 0.9045 -0.3015 -0.3015
vn 0.9045 -0.3015 0.3015
vn -0.9045 -0.3015 0.3015
vn 0.7071 0.0000 0.7071
vn 0.7071 -0.7071 -0.0000
vn -0.7071 -0.7071 0.0000
vn -1.0000 0.0000 -0.0000
vn 1.0000 0.0000 -0.0000
vn 0.7071 0.0000 -0.7071
vn 1.0000 0.0000 0.0000
# 39 vertex normals

vt 0.0468 0.1636 0.0000
vt 0.0460 0.4004 0.0000
vt 0.0138 0.4003 0.0000
vt 0.0146 0.1635 0.0000
vt 0.2008 0.0125 -0.0966
vt 0.1992 0.0125 -0.0949
vt 0.0141 0.0125 -0.0949
vt 0.0125 0.0125 -0.0966
vt 0.0148 0.1153 0.0000
vt 0.0470 0.1154 0.0000
vt 0.9068 0.0137 0.0000
vt 0.9069 0.0620 0.0000
vt 0.6701 0.0622 0.0000
vt 0.6700 0.0140 0.0000
vt 0.0125 0.0125 0.0603
vt 0.0141 0.0125 0.0603
vt 0.0141 0.0125 0.0949
vt 0.0125 0.0125 0.0966
vt 0.2008 0.0125 -0.0344
vt 0.1992 0.0125 -0.0344
vt 0.6637 0.8384 0.0000
vt 0.4309 0.8374 0.0000
vt 0.4309 0.8328 0.0000
vt 0.6637 0.8339 0.0000
vt 0.4297 0.5516 0.0000
vt 0.4289 0.7884 0.0000
vt 0.4191 0.7883 0.0000
vt 0.4199 0.5515 0.0000
vt 0.1992 0.0125 0.0949
vt 0.2008 0.0125 0.0966
vt 0.9853 0.3123 0.0000
vt 0.7525 0.3122 0.0000
vt 0.7525 0.2853 0.0000
vt 0.9853 0.2854 0.0000
vt 0.7391 0.3908 -0.0631
vt 0.7370 0.3908 -0.0631
vt 0.7370 0.1649 -0.0631
vt 0.7391 0.1649 -0.0631
vt 0.7370 0.1649 0.0631
vt 0.7391 0.1649 0.0631
vt 0.7391 0.3908 0.0631
vt 0.7370 0.3908 0.0631
vt 0.0125 0.0125 -0.0344
vt 0.0141 0.0125 -0.0344
vt 0.0473 0.0420 0.0000
vt 0.0150 0.0419 0.0000
vt 0.7526 0.2119 0.0000
vt 0.9853 0.2120 0.0000
vt 0.0131 0.9386 0.0000
vt 0.0130 0.9117 0.0000
vt 0.0452 0.9116 0.0000
vt 0.0453 0.9385 0.0000
vt 0.0127 0.8383 0.0000
vt 0.0449 0.8382 0.0000
vt 0.7526 0.1649 0.0000
vt 0.9854 0.1650 0.0000
vt 0.4196 0.9100 0.0000
vt 0.4193 0.8366 0.0000
vt 0.4238 0.8366 0.0000
vt 0.4241 0.9100 0.0000
vt 0.6655 0.4595 0.0000
vt 0.4327 0.4584 0.0000
vt 0.4329 0.4262 0.0000
vt 0.6656 0.4273 0.0000
vt 0.0125 0.7913 0.0000
vt 0.0447 0.7912 0.0000
vt 0.4236 0.7896 0.0000
vt 0.4191 0.7896 0.0000
vt 0.4197 0.9369 0.0000
vt 0.4354 0.0137 0.0000
vt 0.6682 0.0149 0.0000
vt 0.6682 0.0194 0.0000
vt 0.4354 0.0183 0.0000
vt 0.4335 0.3927 0.0000
vt 0.6662 0.3939 0.0000
vt 0.6661 0.4261 0.0000
vt 0.4333 0.4249 0.0000
vt 0.9371 0.9858 0.0000
vt 0.9049 0.9860 0.0000
vt 0.9048 0.9591 0.0000
vt 0.9370 0.9589 0.0000
vt 0.4243 0.9369 0.0000
vt 0.5260 0.9875 0.0000
vt 0.5259 0.9606 0.0000
vt 0.5304 0.9606 0.0000
vt 0.5305 0.9875 0.0000
vt 0.5256 0.8872 0.0000
vt 0.5254 0.8402 0.0000
vt 0.5299 0.8402 0.0000
vt 0.5301 0.8872 0.0000
vt 0.9043 0.8387 0.0000
vt 0.9045 0.8857 0.0000
vt 0.9365 0.8386 0.0000
vt 0.9367 0.8856 0.0000
vt 0.0151 0.0137 0.0000
vt 0.0474 0.0138 0.0000
vt 0.0125 0.7869 0.0000
vt 0.0133 0.5501 0.0000
vt 0.0455 0.5503 0.0000
vt 0.0447 0.7870 0.0000
vt 0.4303 0.4018 0.0000
vt 0.4301 0.4500 0.0000
vt 0.4203 0.4500 0.0000
vt 0.4204 0.4017 0.0000
vt 0.0136 0.4486 0.0000
vt 0.0458 0.4487 0.0000
vt 0.4214 0.1167 0.0000
vt 0.4213 0.1649 0.0000
vt 0.4311 0.1650 0.0000
vt 0.4217 0.0433 0.0000
vt 0.4218 0.0151 0.0000
vt 0.4316 0.0152 0.0000
vt 0.4315 0.0433 0.0000
vt 0.9070 0.1354 0.0000
vt 0.9070 0.1635 0.0000
vt 0.6702 0.1638 0.0000
vt 0.6702 0.1356 0.0000
vt 0.4191 0.5234 0.0000
vt 0.4298 0.5234 0.0000
vt 0.0134 0.5220 0.0000
vt 0.0456 0.5221 0.0000
vt 0.2008 0.0125 0.0603
vt 0.1992 0.0125 0.0603
vt 0.4313 0.1167 0.0000
# 124 texture coords

o Box001
g Box001
usemtl wire_153228214
s 2
f 1/1/1 2/2/2 3/3/3 4/4/4 
s off
f 3/5/3 5/6/5 6/7/6 4/8/4 
s 64
f 4/4/4 7/9/7 8/10/8 1/1/1 
s 32
f 9/11/9 10/12/10 11/13/11 12/14/12 
s off
f 13/15/13 14/16/14 15/17/15 16/18/16 
f 17/19/14 18/20/7 5/6/5 3/5/3 
f 19/21/17 20/22/18 21/23/19 22/24/20 
s 4
f 23/25/21 24/26/22 25/27/23 26/28/19 
s off
f 16/18/16 15/17/15 27/29/24 28/30/18 
s 8
f 29/31/25 30/32/3 31/33/14 32/34/13 
s 256
f 33/35/26 34/36/27 8/37/8 35/38/28 
s 512
f 35/38/28 8/37/8 36/39/29 37/40/30 
s 2048
f 38/41/31 39/42/32 34/36/27 33/35/26 
s 1024
f 37/40/30 36/39/29 39/42/32 38/41/31 
s off
f 7/43/7 4/8/4 6/7/6 40/44/33 
s 64
f 36/45/29 8/10/8 7/9/7 13/46/13 
s off
f 13/15/13 7/43/7 40/44/33 14/16/14 
s 8
f 41/47/33 42/48/7 32/34/13 31/33/14 
s off
f 15/49/15 14/50/14 37/51/30 43/52/34 
f 14/50/14 40/53/33 35/54/28 37/51/30 
s 8
f 20/55/18 19/56/17 42/48/7 41/47/33 
s off
f 38/57/31 33/58/26 41/59/33 31/60/14 
f 44/61/23 45/62/19 6/63/6 5/64/5 
f 35/54/28 40/53/33 6/65/6 45/66/19 
f 45/62/19 44/61/23 22/24/20 21/23/19 
f 20/67/18 41/59/33 33/58/26 21/68/19 
f 45/66/19 21/68/19 33/58/26 35/54/28 
f 38/57/31 46/69/34 43/52/34 37/51/30 
f 30/70/3 29/71/25 47/72/35 46/73/34 
f 43/74/34 48/75/1 27/76/24 15/77/15 
f 27/78/24 48/79/1 49/80/36 50/81/13 
f 38/57/31 31/60/14 30/82/3 46/69/34 
f 47/72/35 48/75/1 43/74/34 46/73/34 
f 29/83/25 32/84/13 51/85/36 47/86/35 
f 51/85/36 49/80/36 48/79/1 47/86/35 
f 42/87/7 19/88/17 22/89/20 52/90/36 
f 22/89/20 44/91/23 53/92/36 52/90/36 
f 44/91/23 5/93/5 18/94/7 53/92/36 
f 42/87/7 52/90/36 51/85/36 32/84/13 
f 52/90/36 53/92/36 49/80/36 51/85/36 
f 53/92/36 18/94/7 50/81/13 49/80/36 
s 64
f 36/45/29 13/46/13 16/95/16 54/96/23 
s 4
f 16/97/16 28/98/18 55/99/19 54/100/23 
s off
f 12/101/12 11/102/11 56/103/37 57/104/34 
f 17/105/14 3/3/3 2/2/2 58/106/37 
s 64
f 34/107/27 59/108/1 1/1/1 8/10/8 
s 2
f 9/109/9 12/101/12 57/104/34 59/108/1 
s 64
f 39/110/32 25/111/23 24/112/22 60/113/10 
s 32
f 60/114/10 24/115/22 23/116/21 61/117/38 
s off
f 23/25/21 26/28/19 62/118/39 61/119/38 
f 55/99/19 28/98/18 63/120/33 64/121/37 
f 63/122/33 28/30/18 27/29/24 50/123/13 
s 64
f 34/107/27 39/110/32 60/113/10 10/124/10 
s 32
f 10/12/10 60/114/10 61/117/38 11/13/11 
s off
f 61/119/38 62/118/39 56/103/37 11/102/11 
f 64/121/37 63/120/33 17/105/14 58/106/37 
f 63/122/33 50/123/13 18/20/7 17/19/14 
s 64
f 39/110/32 36/45/29 54/96/23 25/111/23 
s 4
f 54/100/23 55/99/19 26/28/19 25/27/23 
s off
f 55/99/19 64/121/37 62/118/39 26/28/19 
f 64/121/37 58/106/37 56/103/37 62/118/39 
f 58/106/37 2/2/2 57/104/34 56/103/37 
s 2
f 2/2/2 1/1/1 59/108/1 57/104/34 
s 64
f 10/124/10 9/109/9 59/108/1 34/107/27 
# 64 polygons

#
# object Box008
#

v  -46.6896 35.9866 -81.0231
v  -46.6896 35.9865 75.2908
v  -46.6896 34.4184 75.2908
v  -46.6896 34.4184 -81.0231
v  -47.4028 35.9866 -81.0231
v  -47.4028 34.4184 -81.0231
v  -47.4028 34.4184 75.2908
v  -47.4028 35.9865 75.2908
v  -46.6896 52.0389 51.9919
v  -46.6896 18.3660 51.9919
v  -46.6896 18.3660 50.4238
v  -46.6896 52.0389 50.4238
v  -47.4028 52.0389 51.9919
v  -47.4028 52.0389 50.4238
v  -47.4028 18.3660 50.4238
v  -47.4028 18.3660 51.9919
v  -46.6896 52.0389 25.9971
v  -46.6896 18.3660 25.9971
v  -46.6896 18.3660 24.4289
v  -46.6896 52.0389 24.4289
v  -47.4028 52.0389 25.9971
v  -47.4028 52.0389 24.4289
v  -47.4028 18.3660 24.4289
v  -47.4028 18.3660 25.9971
v  -46.6896 52.0389 0.0023
v  -46.6896 18.3660 0.0023
v  -46.6896 18.3660 -1.5659
v  -46.6896 52.0389 -1.5659
v  -47.4028 52.0389 0.0023
v  -47.4028 52.0389 -1.5659
v  -47.4028 18.3660 -1.5659
v  -47.4028 18.3660 0.0023
v  -46.6896 52.0389 -25.9926
v  -46.6896 18.3660 -25.9926
v  -46.6896 18.3660 -27.5607
v  -46.6896 52.0389 -27.5607
v  -47.4028 52.0389 -25.9926
v  -47.4028 52.0389 -27.5607
v  -47.4028 18.3660 -27.5607
v  -47.4028 18.3660 -25.9926
v  -46.6896 52.0389 -51.9874
v  -46.6896 18.3660 -51.9874
v  -46.6896 18.3660 -53.5556
v  -46.6896 52.0389 -53.5556
v  -47.4028 52.0389 -51.9874
v  -47.4028 52.0389 -53.5556
v  -47.4028 18.3660 -53.5556
v  -47.4028 18.3660 -51.9874
# 48 vertices

vn 0.7071 0.7071 0.0000
vn 0.7071 -0.7071 -0.0000
vn -0.7071 0.7071 0.0000
vn -0.7071 -0.7071 -0.0000
vn 0.7071 -0.0000 0.7071
vn 0.7071 0.0000 -0.7071
vn -0.7071 -0.0000 0.7071
vn -0.7071 0.0000 -0.7071
# 8 vertex normals

vt 0.7472 0.5898 0.0000
vt 0.7472 0.1649 0.0000
vt 0.7491 0.1649 0.0000
vt 0.7491 0.5898 0.0000
vt 0.7441 0.5898 0.0000
vt 0.7406 0.5898 0.0000
vt 0.7406 0.1649 0.0000
vt 0.7441 0.1649 0.0000
vt 0.7510 0.1649 0.0000
vt 0.7510 0.5898 0.0000
vt 0.2970 0.0465 0.0000
vt 0.3776 0.0465 0.0000
vt 0.3776 0.0493 0.0000
vt 0.2970 0.0493 0.0000
vt 0.2970 0.0563 0.0000
vt 0.2970 0.0525 0.0000
vt 0.3776 0.0525 0.0000
vt 0.3776 0.0563 0.0000
vt 0.2970 0.0444 0.0000
vt 0.3776 0.0444 0.0000
vt 0.1320 0.0460 0.0000
vt 0.2126 0.0460 0.0000
vt 0.2126 0.0487 0.0000
vt 0.1320 0.0487 0.0000
vt 0.1320 0.0557 0.0000
vt 0.1320 0.0519 0.0000
vt 0.2126 0.0519 0.0000
vt 0.2126 0.0557 0.0000
vt 0.1320 0.0438 0.0000
vt 0.2126 0.0438 0.0000
vt 0.0495 0.0457 0.0000
vt 0.1301 0.0457 0.0000
vt 0.1301 0.0484 0.0000
vt 0.0495 0.0484 0.0000
vt 0.0495 0.0554 0.0000
vt 0.0495 0.0516 0.0000
vt 0.1301 0.0516 0.0000
vt 0.1301 0.0554 0.0000
vt 0.0495 0.0435 0.0000
vt 0.1301 0.0435 0.0000
vt 0.0495 0.0588 0.0000
vt 0.1301 0.0588 0.0000
vt 0.1301 0.0615 0.0000
vt 0.0495 0.0615 0.0000
vt 0.0495 0.0685 0.0000
vt 0.0495 0.0648 0.0000
vt 0.1301 0.0648 0.0000
vt 0.1301 0.0685 0.0000
vt 0.0495 0.0566 0.0000
vt 0.1301 0.0566 0.0000
vt 0.2145 0.0462 0.0000
vt 0.2951 0.0462 0.0000
vt 0.2951 0.0490 0.0000
vt 0.2145 0.0490 0.0000
vt 0.2145 0.0560 0.0000
vt 0.2145 0.0522 0.0000
vt 0.2951 0.0522 0.0000
vt 0.2951 0.0560 0.0000
vt 0.2145 0.0441 0.0000
vt 0.2951 0.0441 0.0000
# 60 texture coords

o Box008
g Box008
usemtl wire_225143087
s 2
f 65/125/40 66/126/40 67/127/41 68/128/41 
s 4
f 69/129/42 70/130/43 71/131/43 72/132/42 
s 16
f 69/129/42 72/132/42 66/126/40 65/125/40 
s 64
f 71/133/43 70/134/43 68/128/41 67/127/41 
s 2
f 73/135/44 74/136/44 75/137/45 76/138/45 
s 4
f 77/139/46 78/140/47 79/141/47 80/142/46 
s 16
f 77/143/46 80/144/46 74/136/44 73/135/44 
s 64
f 79/141/47 78/140/47 76/138/45 75/137/45 
s 2
f 81/145/44 82/146/44 83/147/45 84/148/45 
s 4
f 85/149/46 86/150/47 87/151/47 88/152/46 
s 16
f 85/153/46 88/154/46 82/146/44 81/145/44 
s 64
f 87/151/47 86/150/47 84/148/45 83/147/45 
s 2
f 89/155/44 90/156/44 91/157/45 92/158/45 
s 4
f 93/159/46 94/160/47 95/161/47 96/162/46 
s 16
f 93/163/46 96/164/46 90/156/44 89/155/44 
s 64
f 95/161/47 94/160/47 92/158/45 91/157/45 
s 2
f 97/165/44 98/166/44 99/167/45 100/168/45 
s 4
f 101/169/46 102/170/47 103/171/47 104/172/46 
s 16
f 101/173/46 104/174/46 98/166/44 97/165/44 
s 64
f 103/171/47 102/170/47 100/168/45 99/167/45 
s 2
f 105/175/44 106/176/44 107/177/45 108/178/45 
s 4
f 109/179/46 110/180/47 111/181/47 112/182/46 
s 16
f 109/183/46 112/184/46 106/176/44 105/175/44 
s 64
f 111/181/47 110/180/47 108/178/45 107/177/45 
# 24 polygons

